<svg xmlns="http://www.w3.org/2000/svg" width="308.2" height="263.76" viewBox="0 0 308.2 263.76">
  <g id="Compétences" transform="translate(-533.6 -287.84)">
    <g id="Groupe_3" data-name="Groupe 3" transform="translate(732.264 287.84)">
      <g id="Groupe_2" data-name="Groupe 2">
        <path id="Tracé_13" data-name="Tracé 13" d="M809.962,289.374l-34.794,49.8a3.745,3.745,0,0,0,0,4.123l13.6,19.953a3.1,3.1,0,0,0,1.484,1.237l21.932,9.977a3.687,3.687,0,0,0,4.04-.742l43.039-42.957a3.553,3.553,0,0,0-.247-5.277l-43.864-36.773A3.492,3.492,0,0,0,809.962,289.374Zm28.2,47.079-15.088-12.615-8.822-7.421-4.865,6.926,8.245,6.926,14.511,12.2L814.25,360.363,798.5,353.19h0l-9.812-14.264,7.585-10.883,6.266,5.277-3.958,5.607,5.359,7.75h0l8.575,3.958,7.585-7.585-7.668-6.431L798.5,324.91l14.264-20.448,15.666,13.11,15.666,13.11Z" transform="translate(-774.55 -287.84)" fill="#173753"/>
      </g>
    </g>
    <path id="Tracé_14" data-name="Tracé 14" d="M891.61,473.224V412.788a2.359,2.359,0,0,0-2.638-2.391l-61.838,5.524a4.236,4.236,0,0,0-3.38,2.8l-6.019,21.767a10.72,10.72,0,0,0,0,5.112l6.019,21.767a4.241,4.241,0,0,0,3.3,2.8l61.838,5.524A2.493,2.493,0,0,0,891.61,473.224Zm-22.344-10.471h0l-7.008-17.067a.469.469,0,0,0-.577-.33.549.549,0,0,0-.412.577v13.275a2.362,2.362,0,0,1-.825,1.814,2.674,2.674,0,0,1-1.9.66l-19.458-2.061a2.4,2.4,0,0,1-2.061-1.649l-4.947-14.1a2.806,2.806,0,0,1,0-1.649l4.865-14.017a2.5,2.5,0,0,1,2.061-1.649l8.822-.907a1.361,1.361,0,0,1,1.237.412,1.753,1.753,0,0,1,.577,1.237v3.875a1.687,1.687,0,0,1-1.484,1.649l-5.442.577-3.38,9.729,3.38,9.729,11.213,1.154V426.474a1.687,1.687,0,0,1,1.484-1.649l4.782-.495a1.721,1.721,0,0,1,1.731.989l7.256,17.644c.082.165.33.33.495.247a.421.421,0,0,0,.33-.412V424.248a1.076,1.076,0,0,1,.989-1.072l5.112-.577a1.393,1.393,0,0,1,.825.247,1.059,1.059,0,0,1,.33.825v38.834a1.465,1.465,0,0,1-.33.825.837.837,0,0,1-.825.247Z" transform="translate(-49.81 -21.505)" fill="#173753"/>
    <g id="Groupe_5" data-name="Groupe 5" transform="translate(730.452 464.736)">
      <g id="Groupe_4" data-name="Groupe 4" transform="translate(0)">
        <path id="Tracé_15" data-name="Tracé 15" d="M806.61,570.172a7.044,7.044,0,0,0,1.237-1.484l-4.2-4.287a5.7,5.7,0,0,0-1.154.989c-1.731,1.731-1.979,3.628-.495,5.112C803.229,571.9,804.961,571.821,806.61,570.172Z" transform="translate(-772.382 -508.271)" fill="#173753"/>
        <path id="Tracé_16" data-name="Tracé 16" d="M812.14,582.053l39.824-38.917a4.056,4.056,0,0,0,.082-5.771L813.13,497.541a4.131,4.131,0,0,0-5.771-.082l-39.824,38.917a4.056,4.056,0,0,0-.082,5.772l38.917,39.824A4.132,4.132,0,0,0,812.14,582.053Zm5.936-51.779a9.68,9.68,0,0,1,3.216-6.184c.412-.412.824-.742,1.154-1.072l-5.112-5.194,3.3-3.216,14.017,14.346a34,34,0,0,1-4.123,4.617c-2.061,1.979-3.875,2.968-5.607,3.216a6.061,6.061,0,0,1-4.865-1.814A6.556,6.556,0,0,1,818.077,530.274Zm-21.932,8.492,3.3-3.216,5.936,6.1,5.442-5.277-5.936-6.1,3.3-3.216,14.264,14.594-3.3,3.216-5.442-5.607-5.442,5.277,5.442,5.607-3.3,3.216Zm-5.524,18.386a9.68,9.68,0,0,1,3.216-6.184c.412-.412.824-.742,1.154-1.072l-5.029-5.194,3.3-3.216,14.017,14.346a34,34,0,0,1-4.122,4.617c-2.061,1.979-3.875,2.968-5.607,3.216a6.061,6.061,0,0,1-4.865-1.814A6.277,6.277,0,0,1,790.621,557.153Z" transform="translate(-766.287 -496.324)" fill="#173753"/>
        <path id="Tracé_17" data-name="Tracé 17" d="M839.91,537.672a7.041,7.041,0,0,0,1.237-1.484l-4.2-4.287a5.7,5.7,0,0,0-1.154.989c-1.731,1.731-1.979,3.628-.495,5.112C836.529,539.4,838.261,539.238,839.91,537.672Z" transform="translate(-778.226 -502.567)" fill="#173753"/>
      </g>
    </g>
    <g id="Groupe_7" data-name="Groupe 7" transform="translate(567.151 292.418)">
      <g id="Groupe_6" data-name="Groupe 6" transform="translate(0)">
        <path id="Tracé_18" data-name="Tracé 18" d="M606.109,340.79A19.03,19.03,0,0,0,603.8,343.1l6.678,7.915a12.408,12.408,0,0,0,2.144-1.567c3.216-2.721,3.875-6.019,1.567-8.74C612.128,338.234,609.159,338.234,606.109,340.79Z" transform="translate(-579.471 -301.372)" fill="#173753"/>
        <path id="Tracé_19" data-name="Tracé 19" d="M618.575,294.306,575.7,330.254a3.924,3.924,0,0,0-.495,5.524l35.948,42.792a3.924,3.924,0,0,0,5.524.495l42.874-35.948a3.924,3.924,0,0,0,.495-5.524L624.1,294.8A3.924,3.924,0,0,0,618.575,294.306Zm-.742,41.72c-.412,3.71-2.8,7.173-6.349,10.141-.825.66-1.567,1.237-2.144,1.649l8.08,9.647-6.019,5.029L589.14,335.943a63.317,63.317,0,0,1,7.75-7.421c3.71-3.133,7.008-4.7,10.059-4.7a10.176,10.176,0,0,1,8.08,3.793A11.471,11.471,0,0,1,617.832,336.026Zm19.706,5.112a18.744,18.744,0,0,1-7.421,3.958l-2.556-5.277a15.28,15.28,0,0,0,6.431-2.886c1.814-1.567,2.061-2.8,1.237-3.793s-1.814-.989-4.782.165c-5.194,2.061-8.575,1.154-10.471-1.237-3.051-3.628-2.226-8.987,2.556-13.027a16.573,16.573,0,0,1,6.431-3.463l2.474,5.112a11.763,11.763,0,0,0-5.194,2.474c-1.484,1.237-1.814,2.556-.989,3.545.742.907,1.9.742,5.029-.412,4.782-1.814,7.915-1.237,10.389,1.567C643.8,331.326,643.145,336.438,637.538,341.137Z" transform="translate(-574.292 -293.392)" fill="#173753"/>
      </g>
    </g>
    <g id="Groupe_9" data-name="Groupe 9" transform="translate(533.6 390.046)">
      <g id="Groupe_8" data-name="Groupe 8">
        <path id="Tracé_20" data-name="Tracé 20" d="M562.7,461.44v.082c2.144.495,4.782,1.072,6.843,1.649l7.585,2.144V457.4l-7.585,2.226C567.482,460.2,564.844,460.863,562.7,461.44Z" transform="translate(-538.707 -419.803)" fill="#173753"/>
        <path id="Tracé_21" data-name="Tracé 21" d="M533.6,416.087V477.6a4.258,4.258,0,0,0,4.287,4.287H599.4a4.258,4.258,0,0,0,4.287-4.287V416.087A4.258,4.258,0,0,0,599.4,411.8H537.887A4.258,4.258,0,0,0,533.6,416.087Zm53.593,29.352-9.152,2.721v10.224l9.152,2.556v8.328l-35.619-10.883V447.831l35.619-11.048Zm0-20.86v8.08H561.3v-8.08Zm-29.023,4.04a3.987,3.987,0,0,1-4.04,4.2,3.9,3.9,0,0,1-4.04-4.2,4.057,4.057,0,0,1,4.04-4.287A3.965,3.965,0,0,1,558.17,428.62Z" transform="translate(-533.6 -411.8)" fill="#173753"/>
      </g>
    </g>
    <g id="Groupe_12" data-name="Groupe 12" transform="translate(558.654 463.281)">
      <g id="Groupe_11" data-name="Groupe 11">
        <g id="Groupe_10" data-name="Groupe 10">
          <path id="Tracé_22" data-name="Tracé 22" d="M609.964,547.555c2.144,2.061,5.194,1.237,7.5-1.154,2.474-2.556,2.8-5.442.824-7.338a3.877,3.877,0,0,0-4.947-.412,4.339,4.339,0,0,0-1.154.989l-1.9,1.979a7.182,7.182,0,0,0-.742.907A3.991,3.991,0,0,0,609.964,547.555Z" transform="translate(-571.861 -507.174)" fill="#173753"/>
          <path id="Tracé_23" data-name="Tracé 23" d="M565.235,547.519l39.906,38.5a4.131,4.131,0,0,0,5.772-.082l38.5-39.906a4.131,4.131,0,0,0-.082-5.772l-39.906-38.5a4.131,4.131,0,0,0-5.772.082l-38.5,39.906A4.056,4.056,0,0,0,565.235,547.519Zm59.612-7.75,4.782,4.617-20.365,21.107-4.782-4.617Zm-14.594-14.181-1.979,2.474.082.082a7.253,7.253,0,0,1,7.256,2.061c3.628,3.545,3.545,9.4-1.072,14.181-4.947,5.194-11.048,5.029-14.676,1.484-1.9-1.814-2.721-3.875-2.391-5.607l-.082-.082-8,8.328-4.782-4.617,17.067-17.644c1.649-1.731,3.38-3.628,4.287-4.7l4.287,4.04Z" transform="translate(-563.987 -500.624)" fill="#173753"/>
        </g>
      </g>
    </g>
    <g id="XMLID_1_" transform="translate(590.776 334.322)">
      <g id="Groupe_13" data-name="Groupe 13" transform="translate(0)">
        <path id="Tracé_24" data-name="Tracé 24" d="M794.981,408.607c10.554,6.184,12.615,19.376,5.194,28.116a41.605,41.605,0,0,0-23.993-7.338,30.508,30.508,0,0,0-5.277-7.421c6.1-10.719,3.71-24.405-6.843-32.65a6.449,6.449,0,0,0-8.575.742,5.383,5.383,0,0,0,.824,8,14.3,14.3,0,0,1,4.617,16.9c-1.319-.577-2.638-1.072-4.04-1.567a6.178,6.178,0,0,0-7.668,3.628,5.583,5.583,0,0,0,3.875,7.173c10.719,3.3,16.573,14.1,13.027,24.076A5.643,5.643,0,0,0,770,455.439a6.214,6.214,0,0,0,7.668-3.628,28.3,28.3,0,0,0,1.567-11.048c14.264,1.4,25.312,12.78,25.312,26.384,0,13.687-11.131,24.983-25.312,26.384a29.6,29.6,0,0,0-7.421-21.025,6.353,6.353,0,0,0-8.575-.742,5.452,5.452,0,0,0-.825,8c11.048,12.532,1.237,31.331-15.748,31.331-11.213,0-20.365-8.575-20.365-19.129V377.029c0-10.554,9.152-19.129,20.365-19.129,9.234,0,17.315,5.854,19.706,14.182a6.033,6.033,0,0,0,6.1,4.2c14.264-.495,24.735,12.78,19.871,25.56A5.781,5.781,0,0,0,794.981,408.607Z" transform="translate(-624.594 -346.618)" fill="#eae6e1"/>
        <path id="Tracé_25" data-name="Tracé 25" d="M695.028,377.063V492.246c0,10.554-9.152,19.129-20.365,19.129-16.985,0-26.8-18.716-15.748-31.331a5.452,5.452,0,0,0-.825-8,6.449,6.449,0,0,0-8.575.742,29.34,29.34,0,0,0-7.421,21.025c-23.086-2.309-33.31-28.116-18.057-44.111a28.583,28.583,0,0,1,18.057-8.74,29.922,29.922,0,0,0,1.567,11.048,6.085,6.085,0,0,0,5.772,3.958c4.122,0,7.091-3.793,5.772-7.5-3.463-10.059,2.391-20.86,13.027-24.076a5.583,5.583,0,0,0,3.875-7.173,6.178,6.178,0,0,0-7.668-3.628,24.081,24.081,0,0,0-4.04,1.567,14.446,14.446,0,0,1,4.617-16.9,5.452,5.452,0,0,0,.824-8,6.441,6.441,0,0,0-8.575-.742,25.2,25.2,0,0,0-6.843,32.65c-4.123,4.2-5.029,7.421-5.359,7.421a42.278,42.278,0,0,0-23.911,7.338c-7.5-8.74-5.359-21.932,5.194-28.116a5.419,5.419,0,0,0,2.474-6.761c-4.452-11.708,3.958-25.56,20.118-25.56a5.992,5.992,0,0,0,5.854-4.2c2.391-8.327,10.471-14.181,19.706-14.181C685.876,357.935,695.028,366.509,695.028,377.063Z" transform="translate(-605.36 -346.652)" fill="#eae6e1"/>
        <path id="Tracé_26" data-name="Tracé 26" d="M784.3,399.28c14.017,10.966,15.5,30.589,3.71,43.286,19.458,24.653.907,60.6-32.65,60.519-10.719,21.025-41.39,23.5-55.9,4.617-14.429,18.881-45.1,16.408-55.9-4.617-33.64,0-52.191-35.866-32.65-60.519-11.79-12.7-10.306-32.321,3.71-43.286-3.875-17.809,9.564-34.547,28.363-36.443,9.812-21.767,41.555-25.395,56.479-5.854,14.924-19.541,46.667-15.913,56.479,5.854C774.735,364.733,788.174,381.47,784.3,399.28Zm-5.772,35.041c7.421-8.74,5.359-21.932-5.194-28.116a5.419,5.419,0,0,1-2.474-6.761c4.865-12.78-5.607-26.054-19.871-25.56a6.033,6.033,0,0,1-6.1-4.2c-2.391-8.328-10.471-14.181-19.706-14.181-11.213,0-20.365,8.575-20.365,19.129V489.81c0,10.554,9.152,19.129,20.365,19.129,16.985,0,26.8-18.716,15.748-31.331a5.39,5.39,0,0,1,.825-8,6.449,6.449,0,0,1,8.575.742,29.6,29.6,0,0,1,7.421,21.025c14.182-1.4,25.312-12.7,25.312-26.384,0-13.6-10.966-24.983-25.312-26.384a29.922,29.922,0,0,1-1.567,11.048,6.214,6.214,0,0,1-7.668,3.628,5.583,5.583,0,0,1-3.875-7.173c3.463-10.059-2.391-20.86-13.027-24.076a5.583,5.583,0,0,1-3.875-7.173,6.178,6.178,0,0,1,7.668-3.628,24.082,24.082,0,0,1,4.04,1.567,14.445,14.445,0,0,0-4.617-16.9,5.452,5.452,0,0,1-.825-8,6.353,6.353,0,0,1,8.575-.742,25.2,25.2,0,0,1,6.843,32.65,30.508,30.508,0,0,1,5.277,7.421A40.4,40.4,0,0,1,778.528,434.321ZM692.614,489.81V374.627c0-10.554-9.152-19.129-20.365-19.129-9.234,0-17.315,5.854-19.706,14.182a5.992,5.992,0,0,1-5.854,4.2c-16.16,0-24.57,13.769-20.118,25.56a5.507,5.507,0,0,1-2.474,6.761c-10.554,6.184-12.7,19.376-5.194,28.116a41.885,41.885,0,0,1,23.911-7.338c.33,0,1.319-3.133,5.359-7.421a25.2,25.2,0,0,1,6.843-32.65,6.449,6.449,0,0,1,8.575.742,5.39,5.39,0,0,1-.825,8,14.3,14.3,0,0,0-4.617,16.9c1.319-.577,2.638-1.072,4.04-1.567a6.178,6.178,0,0,1,7.668,3.628,5.583,5.583,0,0,1-3.875,7.173c-10.719,3.3-16.573,14.1-13.027,24.076,1.319,3.71-1.649,7.5-5.772,7.5a6.085,6.085,0,0,1-5.772-3.958,28.3,28.3,0,0,1-1.567-11.048,28.584,28.584,0,0,0-18.057,8.74c-15.253,15.913-4.947,41.8,18.057,44.111a29.6,29.6,0,0,1,7.421-21.025,6.353,6.353,0,0,1,8.575-.742,5.452,5.452,0,0,1,.825,8c-11.048,12.532-1.237,31.331,15.748,31.331C683.462,508.939,692.614,500.364,692.614,489.81Z" transform="translate(-602.946 -344.216)" fill="#96bdc6"/>
      </g>
    </g>
  </g>
</svg>
