<svg xmlns="http://www.w3.org/2000/svg" width="240.494" height="204.998" viewBox="0 0 240.494 204.998">
  <g id="Groupe_39" data-name="Groupe 39" transform="translate(-1699.01 -2454)" opacity="0.15">
    <g id="Groupe_38" data-name="Groupe 38" transform="translate(1699.01 2454)">
      <path id="Tracé_39" data-name="Tracé 39" d="M43.834,63.206,75.865,36.711a8.438,8.438,0,0,0,.615-12.779,10.8,10.8,0,0,0-14.163-.555L22.224,56.537c-.11.09-.187.2-.291.292s-.224.163-.324.262c-.134.13-.221.28-.344.413-.221.247-.431.491-.621.751s-.334.494-.484.751a8.718,8.718,0,0,0-.424.814,7.758,7.758,0,0,0-.314.823c-.09.277-.17.555-.234.838a7.533,7.533,0,0,0-.134.865c-.023.286-.043.57-.043.859a8.183,8.183,0,0,0,.05.859,7.743,7.743,0,0,0,.134.865,8.256,8.256,0,0,0,.234.838,7.759,7.759,0,0,0,.314.823,9.111,9.111,0,0,0,.424.814c.15.253.307.5.484.751s.4.5.621.751c.124.133.21.283.344.413.1.093.21.16.311.247s.19.214.3.307l40.093,33.16a10.8,10.8,0,0,0,14.156-.558A8.438,8.438,0,0,0,75.865,89.7Z" transform="translate(-19.01 -20.999)" fill="#96bdc6"/>
      <path id="Tracé_40" data-name="Tracé 40" d="M133.059,62.343a8.725,8.725,0,0,0-.134-.871c-.063-.28-.14-.552-.227-.826a8.006,8.006,0,0,0-.735-1.631c-.154-.262-.317-.519-.5-.769a8.327,8.327,0,0,0-.6-.73c-.127-.139-.217-.292-.351-.425-.1-.1-.224-.172-.334-.268s-.177-.2-.284-.286L89.8,23.377a10.806,10.806,0,0,0-14.163.555,8.44,8.44,0,0,0,.618,12.779L108.285,63.2,76.251,89.7a8.44,8.44,0,0,0-.618,12.779,10.807,10.807,0,0,0,14.163.552l40.093-33.16c.11-.093.194-.2.3-.3s.221-.157.321-.253c.134-.133.224-.286.351-.425.214-.238.421-.479.6-.73a8.091,8.091,0,0,0,.5-.769,8.568,8.568,0,0,0,.411-.79c.124-.277.227-.558.324-.841s.167-.546.227-.826a8.456,8.456,0,0,0,.134-.871,8.172,8.172,0,0,0,.05-.859C133.106,62.913,133.086,62.629,133.059,62.343Z" transform="translate(107.385 -20.995)" fill="#96bdc6"/>
      <path id="Tracé_41" data-name="Tracé 41" d="M174.325,41.044c0-5-4.487-9.044-10.023-9.044H44.023C38.487,32,34,36.049,34,41.044s4.487,9.044,10.023,9.044H164.3C169.838,50.087,174.325,46.036,174.325,41.044Z" transform="translate(16.083 1.163)" fill="#96bdc6"/>
      <path id="Tracé_42" data-name="Tracé 42" d="M76.48,63.934a10.8,10.8,0,0,0-14.163-.558L22.224,96.536c-.11.09-.19.2-.3.3s-.221.16-.317.256c-.13.127-.217.274-.337.407a9.425,9.425,0,0,0-.631.763c-.177.241-.331.488-.481.742a8.027,8.027,0,0,0-.424.817c-.124.271-.221.546-.314.82a8.534,8.534,0,0,0-.234.841,7.482,7.482,0,0,0-.134.862c-.023.286-.043.57-.043.859a8.183,8.183,0,0,0,.05.859,7.483,7.483,0,0,0,.134.862,7.346,7.346,0,0,0,.234.841,7.471,7.471,0,0,0,.314.82,8.768,8.768,0,0,0,.424.817,8.2,8.2,0,0,0,.481.742,9.383,9.383,0,0,0,.628.763c.12.133.21.28.337.407.094.09.21.157.3.244.11.1.194.214.311.314l40.093,33.16a10.628,10.628,0,0,0,6.769,2.375,10.51,10.51,0,0,0,7.39-2.933,8.438,8.438,0,0,0-.615-12.779L43.834,103.2,75.865,76.712A8.435,8.435,0,0,0,76.48,63.934Z" transform="translate(-19.01 59.584)" fill="#96bdc6"/>
      <path id="Tracé_43" data-name="Tracé 43" d="M133.059,102.344a7.8,7.8,0,0,0-.134-.868c-.063-.28-.14-.555-.227-.826a7.819,7.819,0,0,0-.324-.838,7.94,7.94,0,0,0-.414-.8,8.621,8.621,0,0,0-.491-.763,8.75,8.75,0,0,0-.615-.742c-.124-.136-.211-.289-.347-.419-.1-.1-.221-.169-.327-.262s-.18-.2-.291-.3L89.8,63.375a10.807,10.807,0,0,0-14.163.558,8.44,8.44,0,0,0,.618,12.779L108.281,103.2,76.251,129.695a8.44,8.44,0,0,0-.618,12.779,10.807,10.807,0,0,0,14.163.558l40.093-33.16c.114-.093.2-.208.3-.307s.217-.157.314-.25c.134-.133.221-.283.347-.419a9.445,9.445,0,0,0,.615-.742,7.341,7.341,0,0,0,.491-.763,7.95,7.95,0,0,0,.414-.8c.127-.277.227-.558.324-.838s.167-.549.227-.826a7.8,7.8,0,0,0,.134-.868,8.233,8.233,0,0,0,.05-.859C133.109,102.914,133.086,102.633,133.059,102.344Z" transform="translate(107.385 59.585)" fill="#96bdc6"/>
      <path id="Tracé_44" data-name="Tracé 44" d="M134.527,81.044c0-5-4.487-9.044-10.023-9.044H61.023C55.487,72,51,76.049,51,81.044s4.487,9.044,10.023,9.044H124.5C130.04,90.087,134.527,86.039,134.527,81.044Z" transform="translate(55.881 81.744)" fill="#96bdc6"/>
      <path id="Tracé_45" data-name="Tracé 45" d="M79.18,61.546c-5.2-1.7-10.955.711-12.846,5.408L39.6,133.274c-1.891,4.7.792,9.882,5.994,11.591a10.988,10.988,0,0,0,3.425.549,10.033,10.033,0,0,0,9.418-5.957L85.17,73.137C87.068,68.44,84.385,63.252,79.18,61.546Z" transform="translate(27.785 59.584)" fill="#96bdc6"/>
    </g>
  </g>
</svg>
