<?xml version="1.0" encoding="utf-8"?>
<!-- Generator: Adobe Illustrator 25.0.1, SVG Export Plug-In . SVG Version: 6.00 Build 0)  -->
<svg version="1.1" id="Calque_1" xmlns="http://www.w3.org/2000/svg" xmlns:xlink="http://www.w3.org/1999/xlink" x="0px" y="0px"
	 viewBox="0 0 154.4 170.2" style="enable-background:new 0 0 154.4 170.2;" xml:space="preserve">
<style type="text/css">
	.st0{fill:#EAE6E1;}
	.st1{fill:#FAF5F0;}
</style>
<g id="Groupe_1" transform="translate(160 100)">
	<g id="Groupe_34">
		<path id="Tracé_7" class="st0" d="M-120.8,64.5c3.4,1.9,6.9,3.6,10.5,5.1c0.1,0.1,0.2,0.2,0.2,0.4c0,0.1-0.1,0.2-0.3,0.2h-30
			c-10.1,0.2-19.8-7-19.7-15.7V18.7c0-0.2,0.1-0.3,0.3-0.3c0.1,0,0.2,0.1,0.3,0.2c2.5,6.5,5.7,12.7,9.5,18.4
			c3.7,5.6,8,10.7,12.8,15.3C-132.2,57.1-126.7,61.2-120.8,64.5z"/>
		<path id="Tracé_8" class="st0" d="M-160-84.3c-0.2-8.8,9.6-16,19.7-15.7h31c0.2,0,0.3,0.1,0.3,0.3c0,0.1-0.1,0.2-0.2,0.3
			c-23,8.8-41.3,26.9-50.2,49.9l0,0c-0.1,0.1-0.2,0.2-0.4,0.2c-0.1,0-0.2-0.1-0.2-0.3L-160-84.3z"/>
		<path id="Tracé_9" class="st0" d="M-55.9-26.6c8.4,3.3,12,11.9,7,18.2c-3.5,4.7-9.6,6.9-16.8,6.9h-45.6c-0.5,0-1-0.3-1.2-0.7
			c-1.3-2.8-2.2-5.9-2.6-8.9c-0.8-5.2-0.2-10.6,1.9-15.4l0.1-0.2l0.1-0.2c0.1-0.2,0.1-0.3,0.2-0.5c0.2-0.5,0.7-0.8,1.2-0.8h45.8
			C-62.4-28.4-59-27.8-55.9-26.6z"/>
		<path id="Tracé_10" class="st0" d="M-10.2,44.7c0.1-0.2,0.4-0.2,0.5,0c0,0,0,0,0,0c4.5,4.8,5.6,11.9,1.6,17.4
			c-3.6,5.5-10.1,8.1-17.6,8.1h-20.7c-0.2,0-0.4-0.2-0.4-0.4c0-0.2,0.1-0.3,0.2-0.3c3.6-1.4,7.1-2.9,10.5-4.7
			c6.4-3.4,12.5-7.5,17.9-12.3C-15.2,50-12.6,47.4-10.2,44.7z"/>
		<path id="Tracé_11" class="st0" d="M-45.9-99.3L-45.9-99.3c-0.2-0.1-0.3-0.3-0.2-0.5c0.1-0.1,0.2-0.2,0.3-0.2h20.2
			c7.5,0,14,2.5,17.6,8.1c4,5.6,2.8,12.7-1.7,17.5c-0.1,0.2-0.4,0.2-0.5,0c0,0,0,0,0,0c-2-2.3-4.1-4.5-6.3-6.6
			C-25.2-88.9-35.1-95.1-45.9-99.3z"/>
	</g>
</g>
<path id="Tracé_12" class="st1" d="M152.2,116.3c-1.7-3.1-4.1-5.6-7.2-7.3c-3.2-1.9-6.8-2.9-10.6-3h-0.1
	c-9.1,0.2-12.9,4.9-16.8,9.9c-2.4,3.2-5.2,6.2-8.3,8.7c-5,3.6-10.6,6.2-16.5,7.7c-26.7,6.8-45.1-10.9-51.5-31.5
	c-3.3-10.2-3.4-21.3-0.3-31.6c0.3-1,0.7-2.1,1.1-3.1l0-0.1c1.8-5,4.4-9.6,7.7-13.7c3.3-4.1,7.3-7.6,11.7-10.3
	c4.5-2.7,9.4-4.6,14.6-5.4c5.5-0.8,11.1-0.5,16.4,1.1l0.1,0c5.2,1.4,10.2,3.6,14.7,6.7c4.8,3.2,8.4,6.7,10.1,10l0,0.1
	c2.6,4.8,7.2,8.2,12.5,9.3c6.1,1.2,12.3-0.4,17.2-4.2c4-3.1,6.2-6.9,6.5-11.3c0.3-3.8-0.9-8-3.5-12.5c-2.3-3.8-5-7.2-8.1-10.3
	c-0.7-0.7-1.5-1.5-2.3-2.2c-5.4-4.9-11.3-9.2-17.7-12.7C116,7.2,109.6,4.7,102.9,3C77.2-3.6,49.9,2.6,29.5,19.7
	C24.5,24,20,28.8,16.1,34.2C3.8,51.7-1.6,73.1,0.8,94.3c1.7,14.3,6.8,27.9,14.7,39.9c3.5,5.2,7.5,10,12.1,14.3
	c4.6,4.4,9.7,8.1,15.2,11.3c11.6,6.5,24.8,9.9,38.1,9.8h0.6c22.7-0.2,44.4-9.1,60.6-25c3.5-3.5,6.6-7.3,9.3-11.5l0,0
	C154.8,128.1,155.1,121.6,152.2,116.3z"/>
</svg>
