<svg xmlns="http://www.w3.org/2000/svg" width="54.5" height="54.5" viewBox="0 0 54.5 54.5">
  <path id="Icon_awesome-linkedin" data-name="Icon awesome-linkedin" d="M50.607,2.25H3.881A3.91,3.91,0,0,0,0,6.179V52.821A3.91,3.91,0,0,0,3.881,56.75H50.607A3.92,3.92,0,0,0,54.5,52.821V6.179A3.92,3.92,0,0,0,50.607,2.25ZM16.472,48.964H8.394V22.955h8.09V48.964ZM12.433,19.4a4.684,4.684,0,1,1,4.684-4.684A4.686,4.686,0,0,1,12.433,19.4ZM46.751,48.964H38.673V36.313c0-3.017-.061-6.9-4.2-6.9-4.209,0-4.854,3.285-4.854,6.679V48.964H21.545V22.955h7.749v3.552H29.4a8.508,8.508,0,0,1,7.652-4.2c8.175,0,9.7,5.389,9.7,12.4Z" transform="translate(0 -2.25)" fill="#faf5f0"/>
</svg>
