<svg xmlns="http://www.w3.org/2000/svg" width="65.294" height="109.975" viewBox="0 0 65.294 109.975">
  <g id="Groupe_40" data-name="Groupe 40" transform="translate(-528.376 -663)" opacity="0.1">
    <path id="Tracé_46" data-name="Tracé 46" d="M57.214,120.886c12.987-.306,28.007-5.86,32.879-19.043,2.325-6.292,1.392-13.683,1.392-20.254V51.063c0-7.531.571-14.825-2.492-21.924-8.853-20.8-38.252-23.9-53.9-8.533C23.18,32.313,26.938,53.291,26.938,68.394c0,8.784-.348,17.637,0,26.448.64,15.312,16.008,25.418,30.262,26.086,6.723.32,6.709-10.12,0-10.44-9.744-.459-19.613-7.155-19.822-17.428-.125-6.6,0-13.2,0-19.794V49.156c0-4.468-.585-9.744.71-14.017C43,18.727,70.466,16.444,78.526,31.13c3.007,5.484,2.617,10.718,2.617,16.7v24.6c0,7.155.459,14.519,0,21.673-.821,11.665-13.795,16.147-23.873,16.384C50.5,110.613,50.491,121.053,57.214,120.886Z" transform="translate(502 652.039)" fill="#96bdc6"/>
    <path id="Tracé_47" data-name="Tracé 47" d="M56.94,48.5V35.971c0-6.723-10.44-6.737-10.44,0V48.5C46.5,55.223,56.94,55.237,56.94,48.5Z" transform="translate(509.889 659.865)" fill="#96bdc6"/>
  </g>
</svg>
