<svg xmlns="http://www.w3.org/2000/svg" width="180" height="174.163" viewBox="0 0 180 174.163">
  <g id="paper-plane_2" transform="translate(0.004 -8.304)" opacity="0.05">
    <path id="Tracé_27" data-name="Tracé 27" d="M179.927,68.356a2.577,2.577,0,0,0-1.758-1.926L117.911,46.435a2.625,2.625,0,1,0-1.687,4.972l50.309,16.7L102.3,79.281,18.173,18.842l86.836,28.819a2.625,2.625,0,1,0,1.688-4.972L3.478,8.442a.129.129,0,0,1-.105-.035,2.712,2.712,0,0,0-2.25.35,2.677,2.677,0,0,0-.914,3.222L70.1,168.609a2.529,2.529,0,0,0,2.426,1.541,2.584,2.584,0,0,0,1.828-.735l29.18-27.558,25.84,16.283h.035a2.7,2.7,0,0,0,1.371.385h.281a2.613,2.613,0,0,0,2.32-2.311l5.7-47.833,40.078-37.573a2.459,2.459,0,0,0,.773-2.451Zm-10.758,4.657-32.8,30.745-28.09-20.2ZM115.31,123.507,77.165,159.539l14.309-59.073Zm2.672,4.692,7.7,21.465-18.246-11.485Zm11.5,16.353-7.875-21.92a.034.034,0,0,0-.035-.035,2.494,2.494,0,0,0-.633-.945L81.911,83.938a2.63,2.63,0,1,0-3.656,3.782l8.824,8.509L71.786,159.434,10.579,22.274,70.7,80.367a2.63,2.63,0,1,0,3.656-3.782L30.407,34.11,133.8,108.38Z" fill="#96bdc6"/>
    <path id="Tracé_28" data-name="Tracé 28" d="M441.5,336.578a2.752,2.752,0,0,1-1.966-.816l-24.6-24.6a2.781,2.781,0,0,1,3.933-3.933l24.6,24.6a2.8,2.8,0,0,1,0,3.933,2.633,2.633,0,0,1-1.966.816Z" transform="translate(-270.439 -194.45)" fill="#96bdc6"/>
    <path id="Tracé_29" data-name="Tracé 29" d="M325.6,452.578a2.752,2.752,0,0,1-1.966-.816l-24.6-24.6a2.781,2.781,0,0,1,3.933-3.933l24.6,24.6a2.8,2.8,0,0,1,0,3.933,2.752,2.752,0,0,1-1.966.816Z" transform="translate(-194.477 -270.112)" fill="#96bdc6"/>
    <path id="Tracé_30" data-name="Tracé 30" d="M441.5,452.578a2.752,2.752,0,0,1-1.966-.816l-24.6-24.6a2.781,2.781,0,0,1,3.933-3.933l24.6,24.6a2.8,2.8,0,0,1,0,3.933,2.633,2.633,0,0,1-1.966.816Z" transform="translate(-270.439 -270.112)" fill="#96bdc6"/>
  </g>
</svg>
