<svg xmlns="http://www.w3.org/2000/svg" width="180" height="179.969" viewBox="0 0 180 179.969">
  <g id="paper-plane_1" transform="translate(-0.075 0.038)" opacity="0.05">
    <g id="Groupe_19" data-name="Groupe 19" transform="translate(15.794 -0.038)">
      <g id="Groupe_18" data-name="Groupe 18">
        <path id="Tracé_31" data-name="Tracé 31" d="M216.472.445a3.463,3.463,0,0,0-3.586.036L147.149,39.567a3.6,3.6,0,0,0-1.255,4.94,3.559,3.559,0,0,0,4.913,1.262l47.16-28.016L110.1,109.337,66.422,95.924,123.444,62.03a3.6,3.6,0,0,0,1.255-4.94,3.559,3.559,0,0,0-4.913-1.262L55.771,93.869A3.6,3.6,0,0,0,54.049,97.4a3.654,3.654,0,0,0,2.51,3.029l52.181,16.045,23.024,42.115c.036.036.036.072.072.108a3.753,3.753,0,0,0,1.686,1.478,3.881,3.881,0,0,0,1.4.288,3.638,3.638,0,0,0,2.51-1.01l26.467-26,49.778,15.324a3.45,3.45,0,0,0,1.04.144,3.492,3.492,0,0,0,2.116-.721,3.7,3.7,0,0,0,1.47-2.885V3.582A3.734,3.734,0,0,0,216.472.445ZM131.943,118.676a3.575,3.575,0,0,0-.646,2.055V142.8L115.59,114.025l69.538-72.547Zm6.527,29.6V125.6l17.573,5.409Zm72.622-7.86-70.471-21.67L211.093,16.454Z" transform="translate(-54.021 0.038)" fill="#96bdc6"/>
      </g>
    </g>
    <g id="Groupe_21" data-name="Groupe 21" transform="translate(15.781 131.203)">
      <g id="Groupe_20" data-name="Groupe 20">
        <path id="Tracé_32" data-name="Tracé 32" d="M86.152,345.527a2.9,2.9,0,0,0-4.109,0L54.827,372.743a2.9,2.9,0,0,0,0,4.109,2.861,2.861,0,0,0,2.069.845,2.985,2.985,0,0,0,2.069-.845l27.216-27.216A2.929,2.929,0,0,0,86.152,345.527Z" transform="translate(-53.975 -344.675)" fill="#96bdc6"/>
      </g>
    </g>
    <g id="Groupe_23" data-name="Groupe 23" transform="translate(0.075 167.424)">
      <g id="Groupe_22" data-name="Groupe 22">
        <path id="Tracé_33" data-name="Tracé 33" d="M11.738,469.827a2.9,2.9,0,0,0-4.109,0l-6.7,6.7a2.9,2.9,0,0,0,0,4.109A2.862,2.862,0,0,0,3,481.483a2.985,2.985,0,0,0,2.069-.845l6.7-6.7A2.929,2.929,0,0,0,11.738,469.827Z" transform="translate(-0.075 -468.975)" fill="#96bdc6"/>
      </g>
    </g>
    <g id="Groupe_25" data-name="Groupe 25" transform="translate(44.474 173.958)">
      <g id="Groupe_24" data-name="Groupe 24">
        <path id="Tracé_34" data-name="Tracé 34" d="M130.483,492.245a2.884,2.884,0,0,0-2.069-.845,3.064,3.064,0,0,0-2.069.845,2.836,2.836,0,0,0-.845,2.069,3.064,3.064,0,0,0,.845,2.069,2.884,2.884,0,0,0,2.069.845,3.009,3.009,0,0,0,2.069-.845,2.884,2.884,0,0,0,.845-2.069A2.815,2.815,0,0,0,130.483,492.245Z" transform="translate(-125.5 -491.4)" fill="#96bdc6"/>
      </g>
    </g>
    <g id="Groupe_27" data-name="Groupe 27" transform="translate(54.437 152.271)">
      <g id="Groupe_26" data-name="Groupe 26">
        <path id="Tracé_35" data-name="Tracé 35" d="M170.031,417.827a2.9,2.9,0,0,0-4.109,0l-14.395,14.395a2.9,2.9,0,0,0,0,4.109,2.862,2.862,0,0,0,2.069.845,2.985,2.985,0,0,0,2.069-.845l14.395-14.395A2.929,2.929,0,0,0,170.031,417.827Z" transform="translate(-150.675 -416.975)" fill="#96bdc6"/>
      </g>
    </g>
    <g id="Groupe_29" data-name="Groupe 29" transform="translate(115.957 151.164)">
      <g id="Groupe_28" data-name="Groupe 28">
        <path id="Tracé_36" data-name="Tracé 36" d="M340.489,414.027a2.9,2.9,0,0,0-4.109,0L321.927,428.48a2.9,2.9,0,0,0,0,4.109,2.861,2.861,0,0,0,2.069.845,2.985,2.985,0,0,0,2.069-.845l14.453-14.453A2.929,2.929,0,0,0,340.489,414.027Z" transform="translate(-321.075 -413.175)" fill="#96bdc6"/>
      </g>
    </g>
    <g id="Groupe_31" data-name="Groupe 31" transform="translate(94.352 47.198)">
      <g id="Groupe_30" data-name="Groupe 30">
        <path id="Tracé_37" data-name="Tracé 37" d="M271.383,134.245a2.884,2.884,0,0,0-2.069-.845,3.009,3.009,0,0,0-2.069.845,2.884,2.884,0,0,0-.845,2.069,3.064,3.064,0,0,0,.845,2.069,2.884,2.884,0,0,0,2.069.845,3.009,3.009,0,0,0,2.069-.845,2.955,2.955,0,0,0,0-4.138Z" transform="translate(-266.4 -133.4)" fill="#96bdc6"/>
      </g>
    </g>
  </g>
</svg>
